<svg xmlns="http://www.w3.org/2000/svg" width="80.138" height="30.8" viewBox="0 0 80.138 30.8">
  <g id="logo" transform="translate(-110 -15)">
    <path id="Path_152" data-name="Path 152" d="M110,15h7.205V32.52h9.327V37.8H110Z" fill="#fff"/>
    <path id="Path_153" data-name="Path 153" d="M137.644,38.32q-4.8,0-7.205-2.24-2.362-2.28-2.362-7.16a20.214,20.214,0,0,1,.48-4.68A6.954,6.954,0,0,1,129.8,21.4a7,7,0,0,1,3.363-1.72A17.619,17.619,0,0,1,137.8,19q5.164,0,7.366,2.2t2.2,7.04q0,5.2-2.362,7.64T137.644,38.32Zm.12-4.68a2,2,0,0,0,2.042-1.08,11.074,11.074,0,0,0,.48-3.92,16.911,16.911,0,0,0-.2-3,2.611,2.611,0,0,0-.76-1.56,2.245,2.245,0,0,0-1.642-.52q-1.6,0-1.841.28a3.416,3.416,0,0,0-.52,1.76,22.877,22.877,0,0,0-.2,3.08,9.979,9.979,0,0,0,.521,3.84A2.146,2.146,0,0,0,137.764,33.64Z" fill="#fff"/>
    <path id="Path_154" data-name="Path 154" d="M159.592,19.08a28.886,28.886,0,0,1,3.923.28q2.042.24,4.763.68V35.96q0,5.72-3.8,8.88a5.144,5.144,0,0,1-2.161.68,23.3,23.3,0,0,1-3.8.28,18.17,18.17,0,0,1-7.286-1.2,15.651,15.651,0,0,1,.121-2.32q.2-1.44.4-2.28a37.374,37.374,0,0,0,5.644.44,14.7,14.7,0,0,0,2.362-.16,2.112,2.112,0,0,0,1.241-.4,5.34,5.34,0,0,0,.48-2.4q.04-.56.04-1.64v-1a5.627,5.627,0,0,1-2.562,2.12,7.5,7.5,0,0,1-2.8.64,6.062,6.062,0,0,1-5.084-2.2q-1.721-2.2-1.721-6.44a17.52,17.52,0,0,1,.761-5.24,6.5,6.5,0,0,1,2.161-3.44,6.987,6.987,0,0,1,2.842-.88A28.57,28.57,0,0,1,159.592,19.08Zm-.841,13.52a7.165,7.165,0,0,0,2.682-.48V23.76q-.439-.08-1.321-.16-.4-.04-1.2-.04a3.111,3.111,0,0,0-1.561.24,3.1,3.1,0,0,0-.72,1.8,18.371,18.371,0,0,0-.241,3.04,6.965,6.965,0,0,0,.481,3.08A2,2,0,0,0,158.751,32.6Z" fill="#fff"/>
    <path id="Path_155" data-name="Path 155" d="M180.411,38.32q-4.8,0-7.206-2.24-2.361-2.28-2.361-7.16a20.214,20.214,0,0,1,.48-4.68,6.955,6.955,0,0,1,1.241-2.84,7,7,0,0,1,3.363-1.72,17.619,17.619,0,0,1,4.643-.68q5.165,0,7.366,2.2t2.2,7.04q0,5.2-2.362,7.64T180.411,38.32Zm.12-4.68a2,2,0,0,0,2.042-1.08,11.074,11.074,0,0,0,.48-3.92,17.008,17.008,0,0,0-.2-3,2.612,2.612,0,0,0-.761-1.56,2.244,2.244,0,0,0-1.641-.52q-1.6,0-1.841.28a3.423,3.423,0,0,0-.521,1.76,23.044,23.044,0,0,0-.2,3.08,9.984,9.984,0,0,0,.52,3.84A2.148,2.148,0,0,0,180.531,33.64Z" fill="#fff"/>
  </g>
</svg>
