<svg xmlns="http://www.w3.org/2000/svg" width="32" height="32" viewBox="0 0 32 32">
  <g id="Group_28" data-name="Group 28" transform="translate(-520 -859)">
    <rect id="Rectangle_32" data-name="Rectangle 32" width="32" height="32" rx="16" transform="translate(520 859)" fill="#dee6ff"/>
    <g id="Group_20" data-name="Group 20">
      <path id="Path_119" data-name="Path 119" d="M535.493,881.261c-5.76,0-7.553-.912-7.553-.912,2.28-2.924.243-5.427-.133-7.892-.585-3.838.523-9.457,7.577-9.457,4.563,0,6.25,2.013,6.88,2.89,1.441,2.007,1.427,6.054.272,9.134a6.4,6.4,0,0,0,.365,5.117S541.254,881.261,535.493,881.261Z" fill="#2f3233"/>
      <path id="Path_120" data-name="Path 120" d="M547.465,885.247c-.925-3.318-5.57-2.95-7.574-3.9s-1.692-4.151-1.946-4.707h-4.89c-.254.556.059,3.754-1.946,4.707s-6.649.585-7.574,3.9a17,17,0,0,0-.627,4.418A70.245,70.245,0,0,0,535.356,891a75.655,75.655,0,0,0,12.736-1.335A16.954,16.954,0,0,0,547.465,885.247Z" fill="#e8c59e"/>
      <path id="Path_121" data-name="Path 121" d="M537.3,882.074c2,.953,6.649.585,7.574,3.9a15.827,15.827,0,0,1,.608,4.138c1.6-.248,2.609-.451,2.609-.451a16.954,16.954,0,0,0-.627-4.418c-.925-3.318-5.57-2.95-7.574-3.9s-1.692-4.151-1.946-4.707h-2.589S535.3,881.122,537.3,882.074Z" fill="#ddb58e"/>
      <path id="Path_122" data-name="Path 122" d="M526.92,890.342a62.571,62.571,0,0,0,8.436.658,66.282,66.282,0,0,0,8.806-.69,6.473,6.473,0,0,1,3.886-1.3,14.6,14.6,0,0,0-.583-3.762c-.855-3.066-4.886-2.985-7.075-3.707.269,1.572,1.087,8.363-4.866,8.363-5.975,0-5.13-6.841-4.864-8.379-2.177.74-6.263.634-7.124,3.723a14.578,14.578,0,0,0-.583,3.76A6.459,6.459,0,0,1,526.92,890.342Z" fill="#d15852"/>
      <path id="Path_123" data-name="Path 123" d="M547.465,885.247c-.855-3.066-4.886-2.985-7.075-3.707a13.682,13.682,0,0,1,.161,1.361c1.864.419,3.767,1.081,4.324,3.077a14.016,14.016,0,0,1,.57,3.556,7.9,7.9,0,0,1,2.6-.525A14.6,14.6,0,0,0,547.465,885.247Z" fill="#c65044"/>
      <path id="Path_124" data-name="Path 124" d="M532.4,879.942a3.8,3.8,0,0,0,6.2-.018c-.676-1.316-.467-2.886-.65-3.288h-4.89C532.871,877.039,533.076,878.625,532.4,879.942Z" fill="#cca281"/>
      <path id="Path_125" data-name="Path 125" d="M540.2,873.2c-.183,1.022.118,1.931.674,2.031s1.155-.647,1.338-1.669-.117-1.931-.673-2.031S540.381,872.181,540.2,873.2Z" fill="#ddb58e"/>
      <path id="Path_126" data-name="Path 126" d="M529.449,871.535c-.556.1-.857,1.009-.673,2.031s.783,1.769,1.338,1.669.857-1.009.674-2.031S530.005,871.435,529.449,871.535Z" fill="#e8c59e"/>
      <path id="Path_127" data-name="Path 127" d="M535.541,867.937s-5.791-.659-5.862,1.048c-.069,1.672.011,1.908,0,2.3-.137,3.882.656,9.2,5.816,9.975,5.536-.833,6.048-6.853,5.778-10.764C541.136,868.55,535.541,867.937,535.541,867.937Z" fill="#e8c59e"/>
      <path id="Path_128" data-name="Path 128" d="M535.493,881.261c8.292-1.247,5.314-14.135,5.314-14.135h-1.243c.34,5.383.811,8.243-1.143,11.361C536.872,880.957,535.493,881.261,535.493,881.261Z" fill="#ddb58e"/>
      <path id="Path_129" data-name="Path 129" d="M529.561,871.525a6.577,6.577,0,0,0,5.939-1.671s1.706,2.3,5.821,1.682v-3.182h-11.76Z" fill="#ddb58e"/>
      <path id="Path_130" data-name="Path 130" d="M541.548,867.594c-.751-2.316-6.054-2.806-6.055-2.806s-5.3.49-6.054,2.806a5.3,5.3,0,0,0,.122,3.931,7.509,7.509,0,0,0,5.932-2.136,7.315,7.315,0,0,0,5.827,2.148A5.035,5.035,0,0,0,541.548,867.594Z" fill="#2f3233"/>
      <path id="Path_131" data-name="Path 131" d="M529.561,869.715a10.771,10.771,0,0,1,11.856,0,6.842,6.842,0,0,0-11.856,0Z" fill="#e0605c"/>
    </g>
  </g>
</svg>
